<svg width="22" height="24" viewBox="0 0 22 24" fill="none" xmlns="http://www.w3.org/2000/svg">
<path d="M6.78987 2.91496H6.56827C6.69017 2.91496 6.78987 2.81525 6.78987 2.69335V2.91496H15.2104V2.69335C15.2104 2.81525 15.3101 2.91496 15.432 2.91496H15.2104V4.90925H17.2047V2.69335C17.2047 1.71555 16.4097 0.920654 15.432 0.920654H6.56827C5.59047 0.920654 4.79557 1.71555 4.79557 2.69335V4.90925H6.78987V2.91496ZM20.7501 4.90925H1.25007C0.759869 4.90925 0.36377 5.30535 0.36377 5.79565V6.68195C0.36377 6.80385 0.463469 6.90355 0.585369 6.90355H2.25837L2.94247 21.3901C2.98687 22.3346 3.76797 23.0797 4.71247 23.0797H17.2878C18.2351 23.0797 19.0134 22.3374 19.0577 21.3901L19.7419 6.90355H21.4149C21.5368 6.90355 21.6365 6.80385 21.6365 6.68195V5.79565C21.6365 5.30535 21.2404 4.90925 20.7501 4.90925ZM17.0745 21.0854H4.92577L4.25547 6.90355H17.7448L17.0745 21.0854Z" fill="#EB5757"/>
</svg>
