<svg width="100" height="100" viewBox="0 0 100 100" fill="none" xmlns="http://www.w3.org/2000/svg">
<path d="M99 50C99 77.048 77.048 99 50 99C22.952 99 1 77.048 1 50C1 22.952 22.952 1 50 1C77.048 1 99 22.952 99 50Z" fill="#F2F2F2" stroke="black" stroke-width="2" stroke-linecap="round" stroke-linejoin="round"/>
<path d="M95 46.8858C95 71.7258 74.84 91.8858 50 91.8858C25.16 91.8858 5 71.7258 5 46.8858C5 22.0458 25.16 1.8858 50 1.8858C74.84 1.8858 95 22.0458 95 46.8858Z" fill="#F9F9F9"/>
<path d="M0.454102 50H99.6072" stroke="black"/>
<path d="M50 0.392578V99.5567" stroke="black"/>
<path d="M5.15625 46.1562C5.04853 47.4256 5 48.703 5 50C5 74.84 25.16 95 50 95C74.84 95 95 74.84 95 50C95 48.703 94.9515 47.4256 94.8438 46.1562C92.8884 69.196 73.543 87.3125 50 87.3125C26.457 87.3125 7.11165 69.196 5.15625 46.1562Z" fill="#F2F2F2"/>
<path d="M95 50C95 74.84 74.84 95 50 95C25.16 95 5 74.84 5 50C5 25.16 25.16 5 50 5C74.84 5 95 25.16 95 50Z" fill="#F9F9F9"/>
</svg>
