<svg width="200" height="201" viewBox="0 0 200 201" fill="none" xmlns="http://www.w3.org/2000/svg">
<path d="M94.2168 0.661398C90.4012 0.895915 85.147 1.55256 81.6285 2.24048C79.924 2.56881 79.7833 2.60008 76.7808 3.31926C54.0906 8.80697 33.6522 22.3464 19.5158 41.2329C12.4945 50.6136 7.05258 61.6047 3.84686 72.8146C1.17282 82.1953 0.0156376 90.6067 0 100.566C0 105.85 0.125101 107.883 0.719332 112.761C2.59585 128.129 8.05339 142.951 16.5759 155.849C21.6269 163.495 27.5379 170.202 34.5592 176.252C41.1426 181.928 47.5854 186.212 55.5136 190.152C60.3144 192.544 63.3637 193.826 67.7736 195.311C76.0459 198.078 82.3791 199.391 92.2621 200.345C95.4209 200.642 105.038 200.595 108.682 200.267C121.598 199.063 132.294 196.14 143.444 190.761C171.858 177.065 191.764 151.425 198.035 120.5C198.801 116.701 199.302 113.183 199.802 107.992C200.099 104.897 200.052 95.2188 199.724 91.6854C197.926 72.5957 191.608 55.9293 180.474 40.9984C175.361 34.1349 168.011 26.7241 160.99 21.3615C146.869 10.558 129.417 3.3818 112.2 1.28678C106.836 0.645763 99.0176 0.364342 94.2168 0.661398ZM103.552 2.85023C122.49 3.58505 139.144 8.97895 154.813 19.4697C162.6 24.6916 170.685 32.1336 176.721 39.6695C186.76 52.1771 193.5 67.2487 196.346 83.5242C197.425 89.7468 197.801 94.8436 197.691 102.129C197.597 108.461 197.41 110.853 196.55 116.357C193.954 132.882 186.979 148.72 176.565 161.697C173.281 165.793 167.933 171.328 164.039 174.658C152.186 184.805 138.08 192.106 123.616 195.608C105.022 200.095 85.9132 199.204 67.8674 193.013C62.9102 191.324 55.8889 188.088 51.1351 185.289C35.4193 176.096 22.4244 162.604 13.6829 146.375C3.81559 128.083 0.172014 107.179 3.22135 86.4166C6.81801 61.8861 19.6722 39.4506 38.8595 24.207C55.4667 11.0114 75.2171 3.63195 96.0151 2.86586C97.7353 2.80332 99.2521 2.74079 99.3772 2.72515C99.5023 2.70952 101.394 2.77205 103.552 2.85023Z" fill="black"/>
<path d="M98.8926 4.49205C98.6737 4.61712 98.3453 4.91418 98.1889 5.1487C97.9074 5.55519 97.8918 6.00859 97.8449 12.3875C97.8136 18.6413 97.8292 19.2354 98.0794 19.72C98.8613 21.2366 100.925 21.3773 101.942 20.0015C102.255 19.5637 102.27 19.3917 102.27 12.7314C102.27 5.21123 102.255 5.1487 101.332 4.57022C100.738 4.19499 99.5025 4.16372 98.8926 4.49205Z" fill="black"/>
<path d="M51.9952 17.0456C51.2602 17.4051 50.7441 18.2181 50.7441 18.9999C50.7441 19.5158 51.2289 20.4695 53.5746 24.6439C57.4371 31.4762 57.3745 31.3824 58.0313 31.6951C59.4543 32.3674 61.4403 30.8821 61.1588 29.3655C61.1119 29.0841 59.595 26.2699 57.8124 23.0961C55.0289 18.1712 54.4815 17.2957 54.0124 17.0456C53.3556 16.686 52.6988 16.686 51.9952 17.0456Z" fill="black"/>
<path d="M146.102 17.0005C145.586 17.2976 145.618 17.2194 142.083 23.7859C139.581 28.445 139.097 29.4456 139.097 29.9928C139.097 31.181 140.207 32.2441 141.474 32.2441C142.49 32.2441 142.897 31.6657 145.868 26.1467C149.855 18.7047 149.652 19.205 149.199 18.1106C148.761 17.0474 147.088 16.4377 146.102 17.0005Z" fill="black"/>
<path d="M104.772 27.3346C104.6 27.3815 103.991 27.5535 103.412 27.7255L102.349 28.0382V28.8043C102.349 29.242 102.38 29.586 102.411 29.586C102.442 29.586 102.88 29.3984 103.381 29.1795C104.46 28.6948 105.836 28.5385 106.602 28.7886C108.072 29.2733 108.463 30.9462 107.447 32.3689C107.228 32.6816 105.977 34.0418 104.694 35.402C102.458 37.7316 102.349 37.8723 102.349 38.482V39.123H106.023H109.698V38.4977V37.8723H106.946H104.194L106.461 35.5115C109.104 32.7598 109.605 31.9781 109.605 30.6022C109.589 29.1951 108.916 28.1789 107.619 27.6317C106.993 27.3815 105.32 27.1939 104.772 27.3346Z" fill="black"/>
<path d="M93.9192 27.8037C93.3562 27.9287 92.8714 28.0538 92.8402 28.1007C92.7933 28.132 92.762 28.4603 92.7463 28.8043C92.7307 29.5235 92.7151 29.5235 94.2163 29.1951C94.7792 29.0701 95.3109 28.9763 95.3891 28.9606C95.4829 28.9606 95.5298 30.5084 95.5142 33.3696L95.4829 37.7941L94.2163 37.841L92.9653 37.8879V38.4977V39.123H96.3274H99.6895V38.4977V37.8879L98.4072 37.841L97.1092 37.7941V32.666V27.5535L96.0146 27.5692C95.4204 27.5848 94.4665 27.6786 93.9192 27.8037Z" fill="black"/>
<path d="M17.0456 51.8006C16.0604 52.6761 15.9353 54.1457 16.7797 54.9431C17.0143 55.1776 19.8134 56.8036 23.0035 58.5703C28.1796 61.4471 28.8833 61.791 29.5244 61.791C31.0413 61.791 32.1359 60.0243 31.4948 58.6016C31.2446 58.07 31.0413 57.9449 24.6298 54.3959C19.6258 51.6286 19.0003 51.3159 18.3435 51.3159C17.7336 51.3159 17.4991 51.4097 17.0456 51.8006Z" fill="black"/>
<path d="M175.908 54.3818C173.078 56.0703 170.467 57.6181 170.107 57.837C169.732 58.0403 169.262 58.4311 169.043 58.6969C168.23 59.6662 168.746 61.5268 169.997 62.0427C170.67 62.3241 171.061 62.3241 171.671 62.0114C173.313 61.1672 183.039 55.273 183.383 54.8977C184.228 54.0066 184.149 52.8652 183.196 51.9115C182.68 51.38 182.523 51.3174 181.835 51.3174C181.1 51.3174 180.74 51.505 175.908 54.3818Z" fill="black"/>
<path d="M168.104 93.9531C166.571 94.297 166.618 94.2658 166.618 95.0162V95.7041L167.369 95.4853C168.495 95.1726 169.511 95.0631 170.34 95.1882C171.92 95.4227 172.639 96.9862 171.669 98.0649C171.325 98.4245 171.013 98.5809 170.309 98.706C169.793 98.7998 169.136 98.8467 168.855 98.8154C168.339 98.7529 168.339 98.7529 168.339 99.4251V100.097H169.48C170.809 100.097 171.529 100.394 172.045 101.176C172.748 102.208 172.326 103.615 171.153 104.194C170.371 104.6 168.292 104.569 167.213 104.162C166.759 103.99 166.368 103.85 166.337 103.85C166.306 103.85 166.306 104.178 166.337 104.585L166.384 105.335L167.478 105.616C169.715 106.195 172.311 105.679 173.217 104.459C174.296 103.021 174.203 101.192 173.014 100.097C172.733 99.8473 172.295 99.5971 172.029 99.5346L171.56 99.4251L172.295 99.0656C173.28 98.5653 173.718 97.721 173.624 96.5484C173.515 95.2976 172.686 94.3752 171.325 94C170.762 93.8436 168.698 93.8124 168.104 93.9531Z" fill="black"/>
<path d="M28.0691 94.5632C27.3498 94.8759 26.7086 95.4856 26.302 96.2674C26.0362 96.7677 25.958 97.1585 25.958 98.2217C25.958 99.7539 26.2551 100.489 27.1934 101.317C28.4288 102.396 30.6337 102.412 31.8221 101.317C32.1036 101.067 32.3382 100.88 32.3694 100.911C32.4945 101.067 31.9316 103.053 31.6032 103.616C30.8839 104.819 29.1012 105.288 27.4436 104.71C27.0839 104.585 26.7555 104.475 26.7243 104.475C26.693 104.475 26.6617 104.788 26.6617 105.179C26.6617 105.867 26.6773 105.867 27.3341 106.055C27.6938 106.164 28.5226 106.258 29.1637 106.258C30.1333 106.258 30.4773 106.18 31.1341 105.836C32.8855 104.929 33.7143 103.35 33.8237 100.676C33.9645 97.3618 33.12 95.3137 31.3217 94.5632C30.5711 94.2505 28.7884 94.2505 28.0691 94.5632ZM30.9933 95.8765C31.697 96.2986 32.0254 97.0022 32.0254 98.1435C32.0254 99.8946 31.2123 100.88 29.7892 100.88C29.367 100.88 28.8822 100.754 28.5851 100.567C27.2403 99.7539 27.0839 97.2992 28.3037 96.0798C28.7571 95.6264 28.9135 95.5638 29.6641 95.5638C30.2114 95.5638 30.6649 95.6733 30.9933 95.8765Z" fill="black"/>
<path d="M4.61344 98.7358C3.84719 99.2361 3.65954 99.7052 3.72209 100.784C3.76901 101.613 3.83156 101.753 4.3476 102.222L4.92619 102.754H11.9006C18.656 102.754 18.9062 102.738 19.4066 102.441C20.0634 102.035 20.4856 100.987 20.3449 100.174C20.2824 99.8615 20.0009 99.3456 19.7038 99.0329L19.1877 98.4544L12.1664 98.4075L5.14512 98.3606L4.61344 98.7358Z" fill="black"/>
<path d="M180.583 98.6889C179.223 99.5019 179.301 101.847 180.693 102.551C180.99 102.707 182.788 102.754 188.042 102.754C193.296 102.754 195.095 102.707 195.392 102.551C196.784 101.847 196.862 99.5019 195.501 98.6889C195.032 98.3919 194.673 98.3762 188.042 98.3762C181.412 98.3762 181.052 98.3919 180.583 98.6889Z" fill="black"/>
<path d="M28.4617 139.167C26.9292 139.902 16.8898 146.031 16.624 146.375C16.1548 147.016 16.0923 147.813 16.4832 148.626C16.9211 149.502 17.4684 149.877 18.3754 149.877C19.0165 149.877 19.6264 149.549 24.865 146.422C28.0551 144.514 30.8229 142.779 31.0419 142.544C31.5579 141.997 31.5892 140.684 31.1044 140.027C30.3382 138.98 29.4468 138.698 28.4617 139.167Z" fill="black"/>
<path d="M169.935 139.651C169.138 140.152 168.778 140.839 168.856 141.793C168.887 142.309 169.028 142.731 169.2 142.934C169.372 143.122 172.093 144.748 175.283 146.562C180.193 149.376 181.163 149.861 181.726 149.876C182.821 149.907 183.806 148.969 183.931 147.766C184.072 146.499 183.9 146.374 177.426 142.669C171.124 139.073 170.967 139.026 169.935 139.651Z" fill="black"/>
<path d="M100.473 163.557C99.7532 163.776 99.1433 164.167 98.5804 164.777C97.4701 165.934 97.0322 167.278 97.0322 169.592C97.0322 172.313 97.7516 174.095 99.2059 174.955C99.8314 175.314 100.097 175.377 101.192 175.377C102.318 175.377 102.537 175.33 103.225 174.908C104.304 174.236 104.867 173.251 104.961 171.906C105.101 169.999 104.429 168.607 103.037 167.935C101.63 167.263 99.5499 167.591 98.8462 168.607L98.596 168.951V168.482C98.596 167.747 99.0495 166.371 99.4717 165.793C99.6906 165.527 100.082 165.168 100.363 165.027C101.02 164.683 102.834 164.683 103.647 165.027L104.241 165.277L104.194 164.542C104.147 163.839 104.132 163.807 103.522 163.635C102.818 163.417 101.067 163.385 100.473 163.557ZM102.333 169.186C103.147 169.764 103.365 170.249 103.365 171.437C103.35 173.36 102.552 174.283 100.973 174.157C99.5968 174.064 98.9087 173.172 98.9087 171.468C98.9087 170.405 99.112 169.795 99.6594 169.311C100.332 168.701 101.583 168.638 102.333 169.186Z" fill="black"/>
<path d="M139.816 169.186C139.175 169.608 138.769 170.327 138.753 171.062C138.753 171.594 139.238 172.563 142.068 177.597C143.882 180.849 145.587 183.695 145.837 183.929C146.712 184.758 148.386 184.398 149.105 183.241C149.731 182.209 149.668 182.069 146.056 175.612C144.164 172.235 142.49 169.436 142.256 169.248C141.708 168.779 140.473 168.764 139.816 169.186Z" fill="black"/>
<path d="M58.563 169.482C58.0938 169.701 57.4683 170.639 54.3877 175.611C51.1194 180.88 50.7598 181.537 50.7441 182.146C50.7441 183.037 51.1351 183.678 51.917 184.054C52.6988 184.429 53.2618 184.445 53.9655 184.116C54.5285 183.85 54.5597 183.819 59.642 175.549C62.0345 171.671 62.144 171.343 61.5341 170.342C61.1901 169.764 60.1893 169.201 59.5481 169.201C59.3136 169.201 58.8601 169.326 58.563 169.482Z" fill="black"/>
<path d="M99.5336 180.099C98.8768 180.224 98.1575 180.881 97.9699 181.522C97.876 181.881 97.8135 184.602 97.8135 188.635C97.8135 195.702 97.8291 195.874 98.6579 196.515C99.6118 197.266 101.207 197.031 101.926 196.031C102.27 195.546 102.27 195.546 102.27 188.51C102.27 181.866 102.255 181.444 101.973 181.037C101.504 180.334 100.441 179.927 99.5336 180.099Z" fill="black"/>
</svg>
