<svg id="Layer_1" data-name="Layer 1" xmlns="http://www.w3.org/2000/svg" viewBox="0 0 823.74 87.93"><defs><style>.cls-1{fill:#231f20;}.cls-2{fill:#404041;}.cls-3{fill:none;stroke:#fff;stroke-width:1.5px;}.cls-4{fill:#fff;}</style></defs><title>wj_01 [Converted]</title><path class="cls-1" d="M30.8,40.66v87.93H854.54V40.66Zm787.67,69.49c-4.76,0-8.63-4.14-8.63-9.24s3.87-9.23,8.63-9.23,8.63,4.13,8.63,9.23S823.24,110.15,818.47,110.15Z" transform="translate(-30.8 -40.66)"/><rect class="cls-2" width="822.85" height="25.49"/><path class="cls-3" d="M99.59,43.7v0Z" transform="translate(-30.8 -40.66)"/><path class="cls-3" d="M105.07,43.7v0Z" transform="translate(-30.8 -40.66)"/><path class="cls-3" d="M110.56,43.7v0Z" transform="translate(-30.8 -40.66)"/><path class="cls-3" d="M116.05,43.7v0Z" transform="translate(-30.8 -40.66)"/><path class="cls-3" d="M121.53,43.7v0Z" transform="translate(-30.8 -40.66)"/><path class="cls-3" d="M95.07,43.7v0Z" transform="translate(-30.8 -40.66)"/><path class="cls-3" d="M127,43.7v0Z" transform="translate(-30.8 -40.66)"/><path class="cls-3" d="M132.51,43.7v0Z" transform="translate(-30.8 -40.66)"/><path class="cls-3" d="M138,43.7v0Z" transform="translate(-30.8 -40.66)"/><path class="cls-3" d="M143.48,43.7v0Z" transform="translate(-30.8 -40.66)"/><path class="cls-3" d="M153,43.7v0Z" transform="translate(-30.8 -40.66)"/><path class="cls-3" d="M158.49,43.7v0Z" transform="translate(-30.8 -40.66)"/><path class="cls-3" d="M164,43.7v0Z" transform="translate(-30.8 -40.66)"/><path class="cls-3" d="M169.46,43.7v0Z" transform="translate(-30.8 -40.66)"/><path class="cls-3" d="M175,43.7v0Z" transform="translate(-30.8 -40.66)"/><path class="cls-3" d="M148.48,43.7v0Z" transform="translate(-30.8 -40.66)"/><path class="cls-3" d="M180.44,43.7v0Z" transform="translate(-30.8 -40.66)"/><path class="cls-3" d="M185.92,43.7v0Z" transform="translate(-30.8 -40.66)"/><path class="cls-3" d="M191.41,43.7v0Z" transform="translate(-30.8 -40.66)"/><path class="cls-3" d="M196.9,43.7v0Z" transform="translate(-30.8 -40.66)"/><path class="cls-3" d="M206.42,43.7v0Z" transform="translate(-30.8 -40.66)"/><path class="cls-3" d="M211.9,43.7v0Z" transform="translate(-30.8 -40.66)"/><path class="cls-3" d="M217.39,43.7v0Z" transform="translate(-30.8 -40.66)"/><path class="cls-3" d="M222.88,43.7v0Z" transform="translate(-30.8 -40.66)"/><path class="cls-3" d="M228.37,43.7v0Z" transform="translate(-30.8 -40.66)"/><path class="cls-3" d="M201.9,43.7v0Z" transform="translate(-30.8 -40.66)"/><path class="cls-3" d="M233.85,43.7v0Z" transform="translate(-30.8 -40.66)"/><path class="cls-3" d="M239.34,43.7v0Z" transform="translate(-30.8 -40.66)"/><path class="cls-3" d="M244.83,43.7v0Z" transform="translate(-30.8 -40.66)"/><path class="cls-3" d="M250.31,43.7v0Z" transform="translate(-30.8 -40.66)"/><path class="cls-3" d="M259.84,43.7v0Z" transform="translate(-30.8 -40.66)"/><path class="cls-3" d="M265.32,43.7v0Z" transform="translate(-30.8 -40.66)"/><path class="cls-3" d="M270.81,43.7v0Z" transform="translate(-30.8 -40.66)"/><path class="cls-3" d="M276.3,43.7v0Z" transform="translate(-30.8 -40.66)"/><path class="cls-3" d="M281.78,43.7v0Z" transform="translate(-30.8 -40.66)"/><path class="cls-3" d="M255.32,43.7v0Z" transform="translate(-30.8 -40.66)"/><path class="cls-3" d="M287.27,43.7v0Z" transform="translate(-30.8 -40.66)"/><path class="cls-3" d="M292.76,43.7v0Z" transform="translate(-30.8 -40.66)"/><path class="cls-3" d="M298.24,43.7v0Z" transform="translate(-30.8 -40.66)"/><path class="cls-3" d="M303.73,43.7v0Z" transform="translate(-30.8 -40.66)"/><path class="cls-3" d="M313.25,43.7v0Z" transform="translate(-30.8 -40.66)"/><path class="cls-3" d="M318.74,43.7v0Z" transform="translate(-30.8 -40.66)"/><path class="cls-3" d="M324.22,43.7v0Z" transform="translate(-30.8 -40.66)"/><path class="cls-3" d="M329.71,43.7v0Z" transform="translate(-30.8 -40.66)"/><path class="cls-3" d="M335.2,43.7v0Z" transform="translate(-30.8 -40.66)"/><path class="cls-3" d="M308.73,43.7v0Z" transform="translate(-30.8 -40.66)"/><path class="cls-3" d="M340.69,43.7v0Z" transform="translate(-30.8 -40.66)"/><path class="cls-3" d="M346.17,43.7v0Z" transform="translate(-30.8 -40.66)"/><path class="cls-3" d="M351.66,43.7v0Z" transform="translate(-30.8 -40.66)"/><path class="cls-3" d="M357.15,43.7v0Z" transform="translate(-30.8 -40.66)"/><path class="cls-3" d="M366.67,43.7v0Z" transform="translate(-30.8 -40.66)"/><path class="cls-3" d="M372.15,43.7v0Z" transform="translate(-30.8 -40.66)"/><path class="cls-3" d="M377.64,43.7v0Z" transform="translate(-30.8 -40.66)"/><path class="cls-3" d="M383.13,43.7v0Z" transform="translate(-30.8 -40.66)"/><path class="cls-3" d="M388.62,43.7v0Z" transform="translate(-30.8 -40.66)"/><path class="cls-3" d="M362.15,43.7v0Z" transform="translate(-30.8 -40.66)"/><path class="cls-3" d="M394.1,43.7v0Z" transform="translate(-30.8 -40.66)"/><path class="cls-3" d="M399.59,43.7v0Z" transform="translate(-30.8 -40.66)"/><path class="cls-3" d="M405.08,43.7v0Z" transform="translate(-30.8 -40.66)"/><path class="cls-3" d="M410.56,43.7v0Z" transform="translate(-30.8 -40.66)"/><path class="cls-3" d="M420.09,43.7v0Z" transform="translate(-30.8 -40.66)"/><path class="cls-3" d="M425.57,43.7v0Z" transform="translate(-30.8 -40.66)"/><path class="cls-3" d="M431.06,43.7v0Z" transform="translate(-30.8 -40.66)"/><path class="cls-3" d="M436.55,43.7v0Z" transform="translate(-30.8 -40.66)"/><path class="cls-3" d="M442,43.7v0Z" transform="translate(-30.8 -40.66)"/><path class="cls-3" d="M415.57,43.7v0Z" transform="translate(-30.8 -40.66)"/><path class="cls-3" d="M447.52,43.7v0Z" transform="translate(-30.8 -40.66)"/><path class="cls-3" d="M453,43.7v0Z" transform="translate(-30.8 -40.66)"/><path class="cls-3" d="M458.5,43.7v0Z" transform="translate(-30.8 -40.66)"/><path class="cls-3" d="M464,43.7v0Z" transform="translate(-30.8 -40.66)"/><path class="cls-3" d="M473.5,43.7v0Z" transform="translate(-30.8 -40.66)"/><path class="cls-3" d="M479,43.7v0Z" transform="translate(-30.8 -40.66)"/><path class="cls-3" d="M484.48,43.7v0Z" transform="translate(-30.8 -40.66)"/><path class="cls-3" d="M490,43.7v0Z" transform="translate(-30.8 -40.66)"/><path class="cls-3" d="M495.45,43.7v0Z" transform="translate(-30.8 -40.66)"/><path class="cls-3" d="M469,43.7v0Z" transform="translate(-30.8 -40.66)"/><path class="cls-3" d="M500.94,43.7v0Z" transform="translate(-30.8 -40.66)"/><path class="cls-3" d="M506.42,43.7v0Z" transform="translate(-30.8 -40.66)"/><path class="cls-3" d="M511.91,43.7v0Z" transform="translate(-30.8 -40.66)"/><path class="cls-3" d="M517.4,43.7v0Z" transform="translate(-30.8 -40.66)"/><path class="cls-3" d="M526.92,43.7v0Z" transform="translate(-30.8 -40.66)"/><path class="cls-3" d="M532.41,43.7v0Z" transform="translate(-30.8 -40.66)"/><path class="cls-3" d="M537.89,43.7v0Z" transform="translate(-30.8 -40.66)"/><path class="cls-3" d="M543.38,43.7v0Z" transform="translate(-30.8 -40.66)"/><path class="cls-3" d="M548.86,43.7v0Z" transform="translate(-30.8 -40.66)"/><path class="cls-3" d="M522.4,43.7v0Z" transform="translate(-30.8 -40.66)"/><path class="cls-3" d="M554.35,43.7v0Z" transform="translate(-30.8 -40.66)"/><path class="cls-3" d="M559.84,43.7v0Z" transform="translate(-30.8 -40.66)"/><path class="cls-3" d="M565.33,43.7v0Z" transform="translate(-30.8 -40.66)"/><path class="cls-3" d="M570.81,43.7v0Z" transform="translate(-30.8 -40.66)"/><path class="cls-3" d="M580.34,43.7v0Z" transform="translate(-30.8 -40.66)"/><path class="cls-3" d="M585.82,43.7v0Z" transform="translate(-30.8 -40.66)"/><path class="cls-3" d="M591.31,43.7v0Z" transform="translate(-30.8 -40.66)"/><path class="cls-3" d="M596.8,43.7v0Z" transform="translate(-30.8 -40.66)"/><path class="cls-3" d="M602.28,43.7v0Z" transform="translate(-30.8 -40.66)"/><path class="cls-3" d="M575.82,43.7v0Z" transform="translate(-30.8 -40.66)"/><path class="cls-3" d="M607.77,43.7v0Z" transform="translate(-30.8 -40.66)"/><path class="cls-3" d="M613.26,43.7v0Z" transform="translate(-30.8 -40.66)"/><path class="cls-3" d="M618.75,43.7v0Z" transform="translate(-30.8 -40.66)"/><path class="cls-3" d="M624.23,43.7v0Z" transform="translate(-30.8 -40.66)"/><path class="cls-3" d="M633.75,43.7v0Z" transform="translate(-30.8 -40.66)"/><path class="cls-3" d="M639.24,43.7v0Z" transform="translate(-30.8 -40.66)"/><path class="cls-3" d="M644.73,43.7v0Z" transform="translate(-30.8 -40.66)"/><path class="cls-3" d="M650.21,43.7v0Z" transform="translate(-30.8 -40.66)"/><path class="cls-3" d="M655.7,43.7v0Z" transform="translate(-30.8 -40.66)"/><path class="cls-3" d="M629.23,43.7v0Z" transform="translate(-30.8 -40.66)"/><path class="cls-3" d="M661.18,43.7v0Z" transform="translate(-30.8 -40.66)"/><path class="cls-3" d="M666.67,43.7v0Z" transform="translate(-30.8 -40.66)"/><path class="cls-3" d="M672.16,43.7v0Z" transform="translate(-30.8 -40.66)"/><path class="cls-3" d="M677.65,43.7v0Z" transform="translate(-30.8 -40.66)"/><path class="cls-3" d="M687.17,43.7v0Z" transform="translate(-30.8 -40.66)"/><path class="cls-3" d="M692.65,43.7v0Z" transform="translate(-30.8 -40.66)"/><path class="cls-3" d="M698.14,43.7v0Z" transform="translate(-30.8 -40.66)"/><path class="cls-3" d="M703.63,43.7v0Z" transform="translate(-30.8 -40.66)"/><path class="cls-3" d="M709.12,43.7v0Z" transform="translate(-30.8 -40.66)"/><path class="cls-3" d="M682.65,43.7v0Z" transform="translate(-30.8 -40.66)"/><path class="cls-3" d="M714.6,43.7v0Z" transform="translate(-30.8 -40.66)"/><path class="cls-3" d="M720.09,43.7v0Z" transform="translate(-30.8 -40.66)"/><path class="cls-3" d="M725.58,43.7v0Z" transform="translate(-30.8 -40.66)"/><path class="cls-3" d="M731.06,43.7v0Z" transform="translate(-30.8 -40.66)"/><path class="cls-3" d="M740.58,43.7v0Z" transform="translate(-30.8 -40.66)"/><path class="cls-3" d="M746.07,43.7v0Z" transform="translate(-30.8 -40.66)"/><path class="cls-3" d="M751.56,43.7v0Z" transform="translate(-30.8 -40.66)"/><path class="cls-3" d="M757.05,43.7v0Z" transform="translate(-30.8 -40.66)"/><path class="cls-3" d="M762.53,43.7v0Z" transform="translate(-30.8 -40.66)"/><path class="cls-3" d="M736.07,43.7v0Z" transform="translate(-30.8 -40.66)"/><path class="cls-3" d="M768,43.7v0Z" transform="translate(-30.8 -40.66)"/><path class="cls-3" d="M773.51,43.7v0Z" transform="translate(-30.8 -40.66)"/><path class="cls-3" d="M779,43.7v0Z" transform="translate(-30.8 -40.66)"/><path class="cls-3" d="M784.48,43.7v0Z" transform="translate(-30.8 -40.66)"/><path class="cls-3" d="M794,43.7v0Z" transform="translate(-30.8 -40.66)"/><path class="cls-3" d="M799.49,43.7v0Z" transform="translate(-30.8 -40.66)"/><path class="cls-3" d="M805,43.7v0Z" transform="translate(-30.8 -40.66)"/><path class="cls-3" d="M810.46,43.7v0Z" transform="translate(-30.8 -40.66)"/><path class="cls-3" d="M816,43.7v0Z" transform="translate(-30.8 -40.66)"/><path class="cls-3" d="M789.48,43.7v0Z" transform="translate(-30.8 -40.66)"/><path class="cls-3" d="M842.9,43.7v0Z" transform="translate(-30.8 -40.66)"/><path class="cls-3" d="M821.43,43.7v0Z" transform="translate(-30.8 -40.66)"/><path class="cls-3" d="M826.92,43.7v0Z" transform="translate(-30.8 -40.66)"/><path class="cls-3" d="M832.41,43.7v0Z" transform="translate(-30.8 -40.66)"/><path class="cls-3" d="M837.9,43.7v0Z" transform="translate(-30.8 -40.66)"/><path class="cls-4" d="M96.58,82.46H95.24V73.89a7.08,7.08,0,0,1-1.28.93,8.2,8.2,0,0,1-1.41.69v-1.3a8.06,8.06,0,0,0,2-1.28,5,5,0,0,0,1.19-1.47h.87Z" transform="translate(-30.8 -40.66)"/><path class="cls-4" d="M38,77.22a10.2,10.2,0,0,1,.4-3.12,4,4,0,0,1,1.19-1.83,3.09,3.09,0,0,1,2-.64,3.2,3.2,0,0,1,1.55.36,2.9,2.9,0,0,1,1.1,1,5.67,5.67,0,0,1,.68,1.63,11.06,11.06,0,0,1,.24,2.58,10.12,10.12,0,0,1-.39,3.11,3.9,3.9,0,0,1-1.19,1.83A3.31,3.31,0,0,1,39,81.67,7.21,7.21,0,0,1,38,77.22Zm1.39,0A6.86,6.86,0,0,0,40,80.81a1.79,1.79,0,0,0,3.11,0,6.89,6.89,0,0,0,.63-3.59,6.89,6.89,0,0,0-.63-3.59,1.87,1.87,0,0,0-1.57-.89,1.74,1.74,0,0,0-1.48.79A7,7,0,0,0,39.34,77.22Z" transform="translate(-30.8 -40.66)"/><path class="cls-4" d="M151.18,81.16v1.3h-7.24a2.3,2.3,0,0,1,.16-.94,4.86,4.86,0,0,1,.88-1.45,14.73,14.73,0,0,1,1.76-1.66,14.69,14.69,0,0,0,2.41-2.32,2.77,2.77,0,0,0,.63-1.62,1.78,1.78,0,0,0-.57-1.34,2,2,0,0,0-1.49-.55,2.08,2.08,0,0,0-1.55.58,2.18,2.18,0,0,0-.59,1.61l-1.38-.14a3.42,3.42,0,0,1,1.06-2.36,3.66,3.66,0,0,1,2.49-.81,3.47,3.47,0,0,1,2.49.88,2.83,2.83,0,0,1,.92,2.16,3.33,3.33,0,0,1-.27,1.3,5,5,0,0,1-.89,1.33,20.61,20.61,0,0,1-2.07,1.93,18.64,18.64,0,0,0-1.55,1.38,4.49,4.49,0,0,0-.57.72Z" transform="translate(-30.8 -40.66)"/><path class="cls-4" d="M197.54,79.57l1.34-.18a3,3,0,0,0,.79,1.64,1.93,1.93,0,0,0,1.36.51,2.17,2.17,0,0,0,1.6-.66,2.24,2.24,0,0,0,.65-1.63,2.09,2.09,0,0,0-.6-1.53,2.11,2.11,0,0,0-1.54-.6,3.82,3.82,0,0,0-.95.15l.15-1.18.22,0a2.75,2.75,0,0,0,1.54-.45,1.53,1.53,0,0,0,.69-1.38,1.67,1.67,0,0,0-.5-1.23,2,2,0,0,0-2.6,0,2.47,2.47,0,0,0-.67,1.48l-1.35-.24a3.47,3.47,0,0,1,1.12-2.09,3.24,3.24,0,0,1,2.18-.75,3.58,3.58,0,0,1,1.65.39,2.73,2.73,0,0,1,1.15,1.05,2.64,2.64,0,0,1,.4,1.41,2.35,2.35,0,0,1-.38,1.29,2.63,2.63,0,0,1-1.13.93,2.55,2.55,0,0,1,1.51.93,2.8,2.8,0,0,1,.54,1.76,3.21,3.21,0,0,1-1.05,2.43,3.66,3.66,0,0,1-2.64,1,3.48,3.48,0,0,1-2.4-.86A3.32,3.32,0,0,1,197.54,79.57Z" transform="translate(-30.8 -40.66)"/><path class="cls-4" d="M254.78,82.46V79.83H250V78.6l5-7.09h1.1V78.6h1.48v1.23h-1.48v2.63Zm0-3.86V73.67l-3.43,4.93Z" transform="translate(-30.8 -40.66)"/><path class="cls-4" d="M304,79.59l1.41-.12a2.57,2.57,0,0,0,.73,1.55,2,2,0,0,0,1.38.52,2.15,2.15,0,0,0,1.64-.74,2.73,2.73,0,0,0,.67-1.94,2.49,2.49,0,0,0-.64-1.81,2.28,2.28,0,0,0-1.7-.67,2.37,2.37,0,0,0-2,1.06l-1.26-.16,1.06-5.62h5.44v1.28h-4.37l-.59,2.94a3.63,3.63,0,0,1,2.07-.68,3.27,3.27,0,0,1,2.42,1,3.45,3.45,0,0,1,1,2.55,4,4,0,0,1-.87,2.57,3.45,3.45,0,0,1-2.87,1.33,3.57,3.57,0,0,1-2.44-.83A3.28,3.28,0,0,1,304,79.59Z" transform="translate(-30.8 -40.66)"/><path class="cls-4" d="M364.75,74.19l-1.33.1a2.57,2.57,0,0,0-.51-1.15,1.78,1.78,0,0,0-1.34-.57,1.84,1.84,0,0,0-1.13.36,3.07,3.07,0,0,0-1,1.35,6.9,6.9,0,0,0-.38,2.53,3.1,3.1,0,0,1,2.65-1.46,3,3,0,0,1,2.29,1A3.57,3.57,0,0,1,365,78.9a4.18,4.18,0,0,1-.45,1.92,3.15,3.15,0,0,1-1.22,1.35,3.24,3.24,0,0,1-1.76.47,3.45,3.45,0,0,1-2.74-1.23,6.26,6.26,0,0,1-1.06-4.08,7.31,7.31,0,0,1,1.17-4.61,3.36,3.36,0,0,1,2.76-1.26,2.94,2.94,0,0,1,3.1,2.73Zm-5.48,4.72a3.1,3.1,0,0,0,.29,1.33,2.18,2.18,0,0,0,.83,1,2,2,0,0,0,1.11.34,1.88,1.88,0,0,0,1.46-.69,2.7,2.7,0,0,0,.61-1.87,2.57,2.57,0,0,0-.6-1.79,2,2,0,0,0-1.52-.65,2.09,2.09,0,0,0-1.55.65A2.38,2.38,0,0,0,359.27,78.91Z" transform="translate(-30.8 -40.66)"/><path class="cls-4" d="M411.66,72.94V71.65h7.09v1a14.9,14.9,0,0,0-2.08,3,18.09,18.09,0,0,0-1.58,3.8,14.3,14.3,0,0,0-.52,3h-1.38a13.9,13.9,0,0,1,.51-3.13,16.32,16.32,0,0,1,1.39-3.52A15.4,15.4,0,0,1,417,72.94Z" transform="translate(-30.8 -40.66)"/><path class="cls-4" d="M466.68,76.52a2.61,2.61,0,0,1-1.24-.87,2.3,2.3,0,0,1-.4-1.36,2.66,2.66,0,0,1,.86-2,3.59,3.59,0,0,1,4.59,0,2.69,2.69,0,0,1,.87,2,2.23,2.23,0,0,1-.4,1.33,2.5,2.5,0,0,1-1.21.87,3,3,0,0,1,1.54,1.06,2.92,2.92,0,0,1,.52,1.75,3.16,3.16,0,0,1-1,2.36,3.63,3.63,0,0,1-2.62,1,3.59,3.59,0,0,1-2.61-1,3.18,3.18,0,0,1-1-2.39,2.91,2.91,0,0,1,.54-1.79A2.67,2.67,0,0,1,466.68,76.52ZM466,79.3a2.45,2.45,0,0,0,.27,1.11,1.86,1.86,0,0,0,.81.83,2.36,2.36,0,0,0,1.16.3,2.19,2.19,0,0,0,1.59-.62,2.3,2.3,0,0,0,0-3.18,2.19,2.19,0,0,0-1.62-.64,2.13,2.13,0,0,0-1.57.63A2.16,2.16,0,0,0,466,79.3Zm.43-5.06a1.72,1.72,0,0,0,.5,1.27,1.78,1.78,0,0,0,1.3.49,1.75,1.75,0,0,0,1.28-.49,1.59,1.59,0,0,0,.49-1.19,1.69,1.69,0,0,0-.51-1.25,1.89,1.89,0,0,0-2.55,0A1.58,1.58,0,0,0,466.41,74.24Z" transform="translate(-30.8 -40.66)"/><path class="cls-4" d="M518.23,79.92l1.29-.12a2.28,2.28,0,0,0,.63,1.33,1.74,1.74,0,0,0,1.19.41,2,2,0,0,0,1.08-.29,2.4,2.4,0,0,0,.77-.75,4.69,4.69,0,0,0,.5-1.29,6.88,6.88,0,0,0,.2-1.64c0-.06,0-.15,0-.27a3,3,0,0,1-1.1,1,2.94,2.94,0,0,1-1.51.4,3,3,0,0,1-2.3-1,3.6,3.6,0,0,1-.94-2.6,3.71,3.71,0,0,1,1-2.68,3.29,3.29,0,0,1,2.46-1,3.54,3.54,0,0,1,1.95.58,3.61,3.61,0,0,1,1.35,1.64,8.17,8.17,0,0,1,.46,3.08,9.79,9.79,0,0,1-.46,3.34A3.85,3.85,0,0,1,523.42,82a3.54,3.54,0,0,1-2.11.65,2.89,2.89,0,0,1-3.08-2.72Zm5.5-4.83a2.61,2.61,0,0,0-.61-1.83,1.91,1.91,0,0,0-1.48-.68,2,2,0,0,0-1.56.73,2.69,2.69,0,0,0-.67,1.9A2.33,2.33,0,0,0,520,76.9a2.07,2.07,0,0,0,1.56.66,2,2,0,0,0,1.53-.66A2.57,2.57,0,0,0,523.73,75.09Z" transform="translate(-30.8 -40.66)"/><path class="cls-4" d="M572.27,82.46h-1.35V73.89a7,7,0,0,1-1.27.93,8.63,8.63,0,0,1-1.42.69v-1.3a8.13,8.13,0,0,0,2-1.28,5,5,0,0,0,1.19-1.47h.87Z" transform="translate(-30.8 -40.66)"/><path class="cls-4" d="M575.71,77.06a9.92,9.92,0,0,1,.4-3.13,3.75,3.75,0,0,1,1.19-1.82,3,3,0,0,1,2-.65,3.16,3.16,0,0,1,1.54.36,2.9,2.9,0,0,1,1.1,1,5.4,5.4,0,0,1,.68,1.63,10.5,10.5,0,0,1,.25,2.59,9.87,9.87,0,0,1-.4,3.11A3.89,3.89,0,0,1,581.27,82a3,3,0,0,1-2,.64,3,3,0,0,1-2.49-1.13A7.24,7.24,0,0,1,575.71,77.06Zm1.38,0a6.84,6.84,0,0,0,.63,3.58,1.8,1.8,0,0,0,3.12,0,6.87,6.87,0,0,0,.63-3.58,6.93,6.93,0,0,0-.63-3.6,1.89,1.89,0,0,0-1.58-.88,1.71,1.71,0,0,0-1.47.78A6.88,6.88,0,0,0,577.09,77.06Z" transform="translate(-30.8 -40.66)"/><path class="cls-4" d="M626.06,82.46h-1.35V73.89a6.64,6.64,0,0,1-1.27.93,8.58,8.58,0,0,1-1.41.69v-1.3a8.26,8.26,0,0,0,2-1.28,5,5,0,0,0,1.19-1.47h.87Z" transform="translate(-30.8 -40.66)"/><path class="cls-4" d="M633.43,82.46h-1.35V73.89a6.64,6.64,0,0,1-1.27.93,8.58,8.58,0,0,1-1.41.69v-1.3a8.06,8.06,0,0,0,2-1.28,5,5,0,0,0,1.19-1.47h.87Z" transform="translate(-30.8 -40.66)"/><path class="cls-4" d="M679.85,82.46H678.5V73.89a6.64,6.64,0,0,1-1.27.93,8.63,8.63,0,0,1-1.42.69v-1.3a8.13,8.13,0,0,0,2-1.28A5,5,0,0,0,679,71.46h.87Z" transform="translate(-30.8 -40.66)"/><path class="cls-4" d="M690.35,81.16v1.3h-7.23a2.47,2.47,0,0,1,.15-.94,4.9,4.9,0,0,1,.89-1.45,13.33,13.33,0,0,1,1.76-1.66,15.13,15.13,0,0,0,2.41-2.32,2.77,2.77,0,0,0,.63-1.62,1.78,1.78,0,0,0-.57-1.34,2.06,2.06,0,0,0-1.49-.55,2.11,2.11,0,0,0-1.56.58,2.22,2.22,0,0,0-.59,1.61l-1.38-.14a3.42,3.42,0,0,1,1.07-2.36,3.66,3.66,0,0,1,2.49-.81,3.47,3.47,0,0,1,2.49.88,2.86,2.86,0,0,1,.92,2.16,3.33,3.33,0,0,1-.27,1.3,5.22,5.22,0,0,1-.89,1.33,22.2,22.2,0,0,1-2.08,1.93,20.56,20.56,0,0,0-1.55,1.38,4.49,4.49,0,0,0-.57.72Z" transform="translate(-30.8 -40.66)"/><path class="cls-4" d="M731.73,82.46h-1.35V73.89a7,7,0,0,1-1.27.93,8.63,8.63,0,0,1-1.42.69v-1.3a8.06,8.06,0,0,0,2-1.28,5.07,5.07,0,0,0,1.2-1.47h.87Z" transform="translate(-30.8 -40.66)"/><path class="cls-4" d="M735.18,79.57l1.34-.18a2.9,2.9,0,0,0,.79,1.64,1.92,1.92,0,0,0,1.35.51,2.16,2.16,0,0,0,1.6-.66,2.21,2.21,0,0,0,.66-1.63,2.06,2.06,0,0,0-.61-1.53,2.08,2.08,0,0,0-1.54-.6,3.76,3.76,0,0,0-.94.15l.15-1.18.21,0a2.78,2.78,0,0,0,1.55-.45,1.55,1.55,0,0,0,.68-1.38,1.64,1.64,0,0,0-.5-1.23,1.77,1.77,0,0,0-1.29-.48,1.8,1.8,0,0,0-1.3.49,2.47,2.47,0,0,0-.68,1.48l-1.34-.24a3.42,3.42,0,0,1,1.12-2.09,3.22,3.22,0,0,1,2.17-.75,3.52,3.52,0,0,1,1.65.39,2.69,2.69,0,0,1,1.16,1.05,2.74,2.74,0,0,1,.4,1.41,2.28,2.28,0,0,1-.39,1.29,2.6,2.6,0,0,1-1.12.93,2.58,2.58,0,0,1,1.51.93,2.85,2.85,0,0,1,.53,1.76,3.24,3.24,0,0,1-1,2.43,3.67,3.67,0,0,1-2.65,1,3.45,3.45,0,0,1-2.39-.86A3.28,3.28,0,0,1,735.18,79.57Z" transform="translate(-30.8 -40.66)"/><path class="cls-4" d="M785.52,82.46h-1.35V73.89a7,7,0,0,1-1.27.93,8.63,8.63,0,0,1-1.42.69v-1.3a8.06,8.06,0,0,0,2-1.28,5.07,5.07,0,0,0,1.2-1.47h.87Z" transform="translate(-30.8 -40.66)"/><path class="cls-4" d="M793.27,82.46V79.83h-4.75V78.6l5-7.09h1.1V78.6h1.48v1.23h-1.48v2.63Zm0-3.86V73.67l-3.43,4.93Z" transform="translate(-30.8 -40.66)"/><path class="cls-4" d="M837.39,82.46h-1.34V73.89a7,7,0,0,1-1.27.93,8.63,8.63,0,0,1-1.42.69v-1.3a8.06,8.06,0,0,0,2-1.28,5.25,5.25,0,0,0,1.2-1.47h.86Z" transform="translate(-30.8 -40.66)"/><path class="cls-4" d="M840.84,79.59l1.41-.12A2.46,2.46,0,0,0,843,81a2,2,0,0,0,1.37.52A2.12,2.12,0,0,0,846,80.8a2.73,2.73,0,0,0,.68-1.94,2.49,2.49,0,0,0-.65-1.81,2.26,2.26,0,0,0-1.69-.67,2.37,2.37,0,0,0-2,1.06l-1.27-.16,1.06-5.62h5.45v1.28h-4.37l-.59,2.94a3.63,3.63,0,0,1,2.07-.68,3.3,3.3,0,0,1,2.42,1,3.48,3.48,0,0,1,1,2.55,4,4,0,0,1-.86,2.57,3.47,3.47,0,0,1-2.88,1.33,3.59,3.59,0,0,1-2.44-.83A3.27,3.27,0,0,1,840.84,79.59Z" transform="translate(-30.8 -40.66)"/><path class="cls-3" d="M45.84,43.7v0Z" transform="translate(-30.8 -40.66)"/><path class="cls-3" d="M51.33,43.7v0Z" transform="translate(-30.8 -40.66)"/><path class="cls-3" d="M56.81,43.7v0Z" transform="translate(-30.8 -40.66)"/><path class="cls-3" d="M62.3,43.7v0Z" transform="translate(-30.8 -40.66)"/><path class="cls-3" d="M67.79,43.7v0Z" transform="translate(-30.8 -40.66)"/><path class="cls-3" d="M41.32,43.7v0Z" transform="translate(-30.8 -40.66)"/><path class="cls-3" d="M73.27,43.7v0Z" transform="translate(-30.8 -40.66)"/><path class="cls-3" d="M78.76,43.7v0Z" transform="translate(-30.8 -40.66)"/><path class="cls-3" d="M84.25,43.7v0Z" transform="translate(-30.8 -40.66)"/><path class="cls-3" d="M89.73,43.7v0Z" transform="translate(-30.8 -40.66)"/></svg>